<svg width="392" height="470" viewBox="0 0 392 470" fill="none" xmlns="http://www.w3.org/2000/svg">
<path d="M371.121 448.004C371.672 448.623 371.615 449.571 370.996 450.121L360.903 459.087C360.284 459.637 359.336 459.581 358.786 458.962C358.236 458.343 358.292 457.395 358.911 456.844L367.882 448.875L359.913 439.903C359.363 439.284 359.419 438.336 360.038 437.786C360.657 437.236 361.605 437.292 362.156 437.911L371.121 448.004ZM390.771 4.97529C389.927 5.13034 389.085 5.28599 388.244 5.44221L387.696 2.49266C388.539 2.33608 389.383 2.18008 390.229 2.02468L390.771 4.97529ZM383.214 6.38658C381.543 6.7037 379.878 7.02313 378.219 7.34488L377.648 4.39972C379.311 4.07723 380.98 3.75705 382.655 3.4392L383.214 6.38658ZM373.257 8.317C371.609 8.64333 369.967 8.97195 368.33 9.30284L367.736 6.36233C369.376 6.03064 371.023 5.70124 372.675 5.37413L373.257 8.317ZM363.437 10.3023C361.811 10.6377 360.191 10.9754 358.577 11.3153L357.959 8.37965C359.577 8.03892 361.201 7.70043 362.83 7.3642L363.437 10.3023ZM353.752 12.3416C352.149 12.686 350.552 13.0325 348.961 13.3813L348.318 10.4508C349.914 10.1012 351.515 9.75377 353.122 9.40857L353.752 12.3416ZM344.203 14.4342C342.541 14.8056 340.885 15.1795 339.236 15.5557L338.569 12.6308C340.222 12.2536 341.882 11.8788 343.549 11.5064L344.203 14.4342ZM334.259 16.7026C332.606 17.0873 330.96 17.4744 329.32 17.8639L328.627 14.9451C330.271 14.5546 331.922 14.1664 333.579 13.7807L334.259 16.7026ZM324.419 19.0397C322.792 19.4339 321.171 19.8306 319.557 20.2296L318.837 17.3173C320.456 16.9172 322.081 16.5194 323.713 16.124L324.419 19.0397ZM314.733 21.4338C313.131 21.8375 311.536 22.2435 309.947 22.6519L309.2 19.7463C310.793 19.3368 312.393 18.9296 314 18.5247L314.733 21.4338ZM305.199 23.8839C303.622 24.2968 302.052 24.7121 300.489 25.1296L299.715 22.2311C301.283 21.8124 302.858 21.3959 304.438 20.9818L305.199 23.8839ZM295.597 26.4489C293.947 26.8983 292.304 27.3502 290.669 27.8046L289.866 24.9141C291.506 24.4583 293.154 24.0051 294.808 23.5544L295.597 26.4489ZM285.784 29.1755C284.162 29.635 282.548 30.0969 280.942 30.5613L280.109 27.6793C281.72 27.2134 283.339 26.75 284.966 26.2892L285.784 29.1755ZM276.143 31.9619C274.55 32.4313 272.965 32.9031 271.387 33.3772L270.524 30.5041C272.107 30.0284 273.697 29.5551 275.295 29.0843L276.143 31.9619ZM266.674 34.8071C265.11 35.2861 263.553 35.7675 262.004 36.2512L261.11 33.3875C262.665 32.9022 264.226 32.4192 265.795 31.9386L266.674 34.8071ZM257.32 37.7278C255.682 38.2489 254.053 38.7727 252.432 39.2991L251.505 36.4458C253.132 35.9176 254.767 35.392 256.41 34.8691L257.32 37.7278ZM247.593 40.8862C245.988 41.4178 244.392 41.9521 242.803 42.4889L241.843 39.6467C243.437 39.108 245.039 38.5719 246.65 38.0384L247.593 40.8862ZM238.062 44.107C236.49 44.6489 234.926 45.1933 233.37 45.7403L232.375 42.9101C233.936 42.3611 235.506 41.8146 237.084 41.2707L238.062 44.107ZM228.726 47.3887C227.186 47.9407 225.654 48.4951 224.131 49.052L223.101 46.2343C224.63 45.6753 226.168 45.1187 227.713 44.5647L228.726 47.3887ZM219.531 50.7499C217.919 51.3505 216.317 51.954 214.724 52.5602L213.657 49.7563C215.256 49.1477 216.865 48.5418 218.483 47.9388L219.531 50.7499ZM209.973 54.3868C208.398 54.9984 206.833 55.6127 205.277 56.2296L204.171 53.4408C205.734 52.8213 207.305 52.2045 208.886 51.5904L209.973 54.3868ZM200.637 58.0882C199.099 58.7104 197.571 59.3352 196.052 59.9625L194.907 57.1897C196.432 56.5596 197.967 55.9321 199.511 55.3073L200.637 58.0882ZM191.523 61.8522C190.022 62.4847 188.531 63.1197 187.049 63.7572L185.863 61.0013C187.352 60.3609 188.85 59.723 190.357 59.0877L191.523 61.8522ZM182.418 65.7703C180.85 66.4591 179.293 67.1507 177.746 67.8451L176.517 65.1083C178.071 64.4106 179.636 63.7157 181.211 63.0237L182.418 65.7703ZM173.138 69.9366C171.613 70.6365 170.098 71.3392 168.593 72.0445L167.32 69.3282C168.832 68.6194 170.354 67.9133 171.887 67.2099L173.138 69.9366ZM164.112 74.1684C162.629 74.879 161.156 75.5923 159.694 76.3081L158.375 73.6138C159.845 72.8942 161.325 72.1772 162.816 71.4629L164.112 74.1684ZM155.34 78.4634C153.826 79.2207 152.324 79.9809 150.834 80.7438L149.467 78.0733C150.966 77.3062 152.476 76.5419 153.998 75.7805L155.34 78.4634ZM146.298 83.093C144.798 83.8789 143.31 84.6676 141.834 85.4591L140.416 82.8154C141.901 82.0193 143.397 81.226 144.905 80.4357L146.298 83.093ZM137.444 87.8417C135.993 88.6387 134.553 89.4383 133.126 90.2405L131.656 87.6255C133.092 86.8183 134.54 86.0138 136 85.2121L137.444 87.8417ZM128.882 92.6552C127.461 93.4731 126.052 94.2936 124.656 95.1167L123.133 92.5325C124.538 91.704 125.955 90.8782 127.385 90.0552L128.882 92.6552ZM120.247 97.7502C118.791 98.6309 117.349 99.5145 115.921 100.401L114.339 97.852C115.777 96.9595 117.228 96.07 118.694 95.1833L120.247 97.7502ZM111.68 103.068C110.28 103.96 108.894 104.854 107.523 105.751L105.881 103.241C107.262 102.337 108.658 101.436 110.068 100.538L111.68 103.068ZM103.449 108.451C102.093 109.362 100.751 110.275 99.4226 111.191L97.7193 108.721C99.0576 107.798 100.41 106.878 101.777 105.96L103.449 108.451ZM95.2147 114.136C93.8283 115.12 92.4581 116.107 91.1042 117.097L89.3336 114.675C90.6989 113.677 92.0803 112.682 93.4779 111.689L95.2147 114.136ZM87.091 120.074C85.7695 121.069 84.4642 122.067 83.1751 123.067L81.336 120.697C82.6367 119.688 83.9535 118.682 85.2864 117.678L87.091 120.074ZM79.3564 126.076C78.0483 127.122 76.7578 128.171 75.4847 129.222L73.5743 126.909C74.8596 125.848 76.1623 124.789 77.4826 123.733L79.3564 126.076ZM71.5798 132.502C70.297 133.598 69.033 134.696 67.7878 135.797L65.8006 133.55C67.0587 132.438 68.3356 131.328 69.6312 130.221L71.5798 132.502ZM64.1087 139.108C62.9011 140.213 61.7123 141.321 60.5422 142.432L58.4771 140.256C59.6602 139.133 60.8621 138.013 62.0827 136.895L64.1087 139.108ZM57.002 145.855C55.7805 147.058 54.5809 148.264 53.403 149.472L51.2549 147.378C52.447 146.155 53.6609 144.935 54.8966 143.717L57.002 145.855ZM49.9349 153.103C48.8006 154.316 47.6882 155.531 46.5975 156.748L44.3635 154.746C45.4685 153.513 46.5953 152.282 47.7439 151.054L49.9349 153.103ZM43.3906 160.404C42.3022 161.673 41.2373 162.944 40.1959 164.217L37.8742 162.317C38.9305 161.026 40.0103 159.737 41.1136 158.451L43.3906 160.404ZM37.033 168.18C36.0038 169.502 34.9998 170.827 34.0209 172.153L31.6072 170.372C32.6013 169.025 33.6206 167.68 34.6651 166.337L37.033 168.18ZM31.1595 176.137C30.2279 177.471 29.3215 178.805 28.4403 180.142L25.9359 178.49C26.832 177.131 27.7535 175.774 28.7002 174.419L31.1595 176.137ZM25.7011 184.43C24.8168 185.861 23.9611 187.293 23.1341 188.726L20.5358 187.226C21.3781 185.767 22.2492 184.309 23.1492 182.853L25.7011 184.43ZM20.7391 193.028C19.9694 194.463 19.2283 195.898 18.5157 197.334L15.8283 196.001C16.5552 194.536 17.3109 193.072 18.0955 191.61L20.7391 193.028ZM16.355 201.883C15.6615 203.411 15.0001 204.939 14.3709 206.467L11.5968 205.325C12.2397 203.763 12.9152 202.202 13.6233 200.643L16.355 201.883ZM12.5795 211.052C12.0144 212.58 11.4814 214.108 10.9804 215.636L8.12977 214.701C8.64252 213.138 9.1878 211.574 9.76563 210.012L12.5795 211.052ZM9.51111 220.436C9.05548 222.039 8.63502 223.64 8.24964 225.241L5.33296 224.539C5.72797 222.898 6.1588 221.257 6.62547 219.616L9.51111 220.436ZM7.19869 230.041C6.88114 231.651 6.5991 233.26 6.3525 234.867L3.3872 234.412C3.64029 232.763 3.92967 231.112 4.25538 229.46L7.19869 230.041ZM5.70605 239.802C5.52771 241.446 5.38649 243.087 5.28232 244.726L2.28836 244.536C2.39538 242.852 2.54043 241.166 2.72356 239.479L5.70605 239.802ZM5.08091 249.637C5.05058 251.283 5.05773 252.926 5.1023 254.566L2.10341 254.648C2.05759 252.962 2.05025 251.273 2.08142 249.582L5.08091 249.637ZM5.34983 259.5C5.47005 261.142 5.62798 262.78 5.82355 264.415L2.84479 264.771C2.64376 263.091 2.48142 261.406 2.35784 259.719L5.34983 259.5ZM6.52296 269.309C6.79098 270.92 7.09585 272.527 7.43752 274.131L4.50337 274.756C4.15234 273.109 3.83907 271.457 3.56363 269.801L6.52296 269.309ZM8.57293 278.93C8.98819 280.526 9.44025 282.118 9.92906 283.705L7.06196 284.588C6.56023 282.959 6.09609 281.325 5.66963 279.686L8.57293 278.93ZM11.4848 288.394C12.0294 289.924 12.6085 291.45 13.2222 292.972L10.44 294.094C9.81087 292.534 9.21697 290.969 8.65837 289.399L11.4848 288.394ZM15.1669 297.521C15.8497 299.033 16.567 300.54 17.3189 302.041L14.6364 303.384C13.8668 301.848 13.1323 300.305 12.4328 298.756L15.1669 297.521ZM19.6004 306.387C20.3814 307.81 21.1939 309.227 22.0378 310.638L19.4629 312.178C18.6004 310.735 17.7697 309.286 16.9709 307.832L19.6004 306.387ZM24.6637 314.857C25.5704 316.258 26.5085 317.653 27.478 319.042L25.0178 320.759C24.0287 319.341 23.0711 317.917 22.1453 316.487L24.6637 314.857ZM30.3416 323.006C31.3117 324.304 32.3097 325.597 33.3354 326.884L30.9893 328.754C29.9444 327.443 28.9274 326.125 27.9384 324.802L30.3416 323.006ZM36.4962 330.728C37.5777 332.004 38.6869 333.274 39.824 334.537L37.5941 336.544C36.4375 335.259 35.3088 333.967 34.208 332.668L36.4962 330.728ZM43.1712 338.154C44.2841 339.324 45.4212 340.489 46.5826 341.647L44.4637 343.771C43.284 342.594 42.1286 341.411 40.9975 340.222L43.1712 338.154ZM50.1395 345.106C51.3494 346.253 52.5836 347.394 53.842 348.529L51.8327 350.757C50.5561 349.605 49.3037 348.448 48.0755 347.283L50.1395 345.106ZM57.636 351.869C58.8517 352.914 60.0883 353.953 61.3458 354.987L59.4407 357.305C58.1664 356.257 56.913 355.204 55.6805 354.144L57.636 351.869ZM65.1814 358.072C66.4808 359.094 67.8012 360.111 69.1425 361.121L67.3371 363.517C65.9794 362.494 64.6424 361.465 63.3263 360.429L65.1814 358.072ZM73.2291 364.135C74.5697 365.103 75.9299 366.066 77.3098 367.022L75.6008 369.488C74.2053 368.52 72.8294 367.547 71.473 366.568L73.2291 364.135ZM81.3313 369.756C82.6898 370.661 84.0663 371.562 85.4608 372.456L83.8408 374.981C82.4316 374.077 81.0404 373.167 79.667 372.252L81.3313 369.756ZM89.6982 375.123C91.1286 376.007 92.577 376.884 94.0434 377.756L92.5104 380.335C91.0298 379.454 89.5669 378.568 88.122 377.676L89.6982 375.123ZM98.3992 380.297C99.7939 381.096 101.204 381.89 102.63 382.679L101.178 385.304C99.7391 384.508 98.3159 383.707 96.908 382.901L98.3992 380.297ZM106.953 385.028C108.41 385.806 109.882 386.579 111.369 387.346L109.994 390.012C108.494 389.239 107.009 388.459 105.54 387.675L106.953 385.028ZM115.878 389.631C117.396 390.387 118.93 391.137 120.479 391.882L119.179 394.586C117.617 393.835 116.071 393.078 114.54 392.316L115.878 389.631ZM124.913 393.979C126.381 394.662 127.862 395.339 129.356 396.012L128.124 398.748C126.619 398.07 125.127 397.387 123.648 396.699L124.913 393.979ZM133.878 398.015C135.399 398.677 136.933 399.334 138.48 399.987L137.315 402.751C135.757 402.094 134.212 401.432 132.68 400.765L133.878 398.015ZM143.162 401.927C144.736 402.569 146.323 403.206 147.924 403.837L146.823 406.627C145.212 405.992 143.614 405.351 142.03 404.705L143.162 401.927ZM152.483 405.606C153.997 406.185 155.523 406.758 157.06 407.327L156.019 410.141C154.472 409.568 152.936 408.991 151.413 408.409L152.483 405.606ZM161.706 409.02C163.266 409.579 164.837 410.133 166.42 410.683L165.436 413.517C163.844 412.964 162.263 412.406 160.693 411.844L161.706 409.02ZM171.203 412.317C172.809 412.857 174.426 413.392 176.055 413.921L175.127 416.774C173.489 416.241 171.862 415.704 170.247 415.161L171.203 412.317ZM180.821 415.447C182.362 415.932 183.914 416.413 185.475 416.89L184.599 419.759C183.029 419.28 181.47 418.797 179.92 418.308L180.821 415.447ZM190.188 418.306C191.769 418.774 193.36 419.237 194.961 419.695L194.135 422.579C192.526 422.118 190.926 421.653 189.337 421.183L190.188 418.306ZM199.793 421.056C201.414 421.506 203.044 421.95 204.685 422.39L203.908 425.288C202.259 424.846 200.621 424.399 198.992 423.947L199.793 421.056ZM209.636 423.696C211.229 424.108 212.83 424.517 214.44 424.921L213.71 427.831C212.092 427.425 210.483 427.014 208.883 426.6L209.636 423.696ZM219.18 426.091C220.769 426.477 222.367 426.859 223.973 427.236L223.287 430.156C221.673 429.777 220.069 429.394 218.472 429.006L219.18 426.091ZM228.817 428.355C230.44 428.724 232.072 429.088 233.713 429.449L233.07 432.379C231.422 432.017 229.783 431.651 228.152 431.281L228.817 428.355ZM238.661 430.516C240.319 430.867 241.986 431.214 243.661 431.557L243.06 434.496C241.378 434.152 239.704 433.804 238.039 433.451L238.661 430.516ZM248.605 432.55C250.192 432.863 251.787 433.172 253.389 433.478L252.828 436.425C251.219 436.118 249.618 435.808 248.024 435.493L248.605 432.55ZM258.219 434.381C259.836 434.679 261.461 434.972 263.094 435.261L262.57 438.215C260.931 437.925 259.3 437.631 257.676 437.332L258.219 434.381ZM268.014 436.117C269.662 436.398 271.317 436.675 272.98 436.948L272.494 439.908C270.825 439.634 269.163 439.356 267.509 439.074L268.014 436.117ZM277.991 437.755C279.669 438.019 281.354 438.28 283.047 438.536L282.598 441.502C280.899 441.245 279.207 440.984 277.523 440.718L277.991 437.755ZM287.977 439.268C289.582 439.501 291.194 439.731 292.813 439.957L292.398 442.928C290.774 442.701 289.156 442.471 287.545 442.237L287.977 439.268ZM297.689 440.624C299.321 440.842 300.959 441.057 302.604 441.268L302.223 444.243C300.572 444.032 298.928 443.816 297.291 443.597L297.689 440.624ZM307.56 441.889C309.219 442.092 310.884 442.292 312.556 442.487L312.207 445.467C310.53 445.271 308.859 445.071 307.195 444.867L307.56 441.889ZM317.591 443.063C319.277 443.25 320.968 443.434 322.667 443.614L322.351 446.598C320.647 446.417 318.95 446.233 317.259 446.044L317.591 443.063ZM327.697 444.134C329.31 444.297 330.928 444.456 332.553 444.611L332.267 447.597C330.638 447.442 329.014 447.282 327.397 447.119L327.697 444.134ZM337.443 445.066C339.079 445.215 340.721 445.36 342.369 445.501L342.113 448.49C340.46 448.348 338.813 448.203 337.172 448.054L337.443 445.066ZM347.33 445.914C348.989 446.048 350.654 446.178 352.326 446.305L352.099 449.296C350.423 449.169 348.752 449.038 347.088 448.904L347.33 445.914ZM357.357 446.674C359.04 446.794 360.729 446.91 362.424 447.022L362.225 450.016C360.526 449.903 358.832 449.787 357.145 449.667L357.357 446.674ZM367.525 447.348C368.378 447.4 369.233 447.452 370.088 447.503L369.911 450.497C369.053 450.447 368.197 450.395 367.341 450.342L367.525 447.348ZM372.243 447.008C373.343 448.246 373.231 450.142 371.992 451.243L351.807 469.175C350.568 470.275 348.672 470.163 347.572 468.924C346.471 467.685 346.583 465.789 347.822 464.689L365.765 448.75L349.825 430.807C348.725 429.568 348.837 427.672 350.076 426.572C351.315 425.471 353.211 425.583 354.311 426.822L372.243 447.008ZM391.042 6.45059C390.199 6.60547 389.358 6.76094 388.518 6.91699L387.422 1.01789C388.266 0.861128 389.111 0.704955 389.958 0.549372L391.042 6.45059ZM383.494 7.86027C381.825 8.17702 380.162 8.49609 378.504 8.81745L377.362 2.92714C379.028 2.60427 380.699 2.28372 382.375 1.96551L383.494 7.86027ZM373.549 9.78843C371.903 10.1144 370.262 10.4426 368.627 10.7731L367.438 4.89207C369.081 4.55999 370.729 4.23019 372.383 3.9027L373.549 9.78843ZM363.74 11.7714C362.116 12.1064 360.499 12.4436 358.886 12.7831L357.65 6.91184C359.27 6.57069 360.896 6.23179 362.527 5.89515L363.74 11.7714ZM354.067 13.8082C352.466 14.1521 350.871 14.4982 349.282 14.8465L347.997 8.98562C349.595 8.63553 351.198 8.28766 352.807 7.94203L354.067 13.8082ZM344.53 15.8981C342.87 16.269 341.217 16.6424 339.569 17.0181L338.235 11.1684C339.891 10.7907 341.553 10.4154 343.222 10.0425L344.53 15.8981ZM334.599 18.1635C332.948 18.5477 331.304 18.9343 329.667 19.3233L328.28 13.4857C329.926 13.0946 331.579 12.706 333.238 12.3197L334.599 18.1635ZM324.773 20.4975C323.148 20.8912 321.529 21.2873 319.917 21.6858L318.477 15.8611C320.098 15.4604 321.726 15.0621 323.36 14.6662L324.773 20.4975ZM315.099 22.8883C313.5 23.2914 311.907 23.6969 310.32 24.1047L308.827 18.2935C310.422 17.8834 312.025 17.4756 313.633 17.0702L315.099 22.8883ZM305.579 25.3349C304.005 25.7473 302.437 26.1619 300.876 26.5788L299.328 20.7819C300.898 20.3626 302.475 19.9455 304.058 19.5308L305.579 25.3349ZM295.991 27.8962C294.344 28.3449 292.703 28.7961 291.07 29.2499L289.464 23.4689C291.107 23.0124 292.757 22.5585 294.414 22.1071L295.991 27.8962ZM286.193 30.6187C284.574 31.0774 282.962 31.5386 281.358 32.0023L279.692 26.2383C281.306 25.7717 282.928 25.3076 284.557 24.846L286.193 30.6187ZM276.567 33.4008C274.977 33.8694 273.394 34.3404 271.818 34.8138L270.092 29.0676C271.678 28.5911 273.271 28.1171 274.871 27.6455L276.567 33.4008ZM267.113 36.2413C265.552 36.7195 263.998 37.2001 262.451 37.6831L260.663 31.9557C262.22 31.4695 263.784 30.9857 265.356 30.5044L267.113 36.2413ZM257.775 39.1572C256.14 39.6774 254.514 40.2003 252.895 40.7258L251.042 35.0191C252.672 34.49 254.309 33.9635 255.955 33.4398L257.775 39.1572ZM248.065 42.3101C246.463 42.8408 244.869 43.3741 243.283 43.9099L241.363 38.2257C242.96 37.686 244.565 37.1489 246.178 36.6145L248.065 42.3101ZM238.551 45.5251C236.981 46.066 235.42 46.6095 233.867 47.1554L231.877 41.495C233.442 40.9449 235.015 40.3975 236.596 39.8526L238.551 45.5251ZM229.232 48.8007C227.695 49.3517 226.166 49.905 224.646 50.4608L222.586 44.8255C224.118 44.2653 225.659 43.7077 227.207 43.1526L229.232 48.8007ZM220.055 52.1554C218.446 52.7549 216.847 53.3571 215.257 53.9621L213.123 48.3544C214.726 47.7445 216.338 47.1375 217.959 46.5333L220.055 52.1554ZM210.516 55.785C208.945 56.3954 207.383 57.0083 205.83 57.624L203.618 52.0464C205.184 51.4256 206.759 50.8075 208.343 50.1921L210.516 55.785ZM201.199 59.4787C199.665 60.0995 198.14 60.7229 196.625 61.3489L194.334 55.8033C195.863 55.1718 197.401 54.543 198.949 53.9168L201.199 59.4787ZM192.105 63.2345C190.608 63.8655 189.12 64.4991 187.641 65.1351L185.271 59.6233C186.763 58.9815 188.264 58.3422 189.775 57.7055L192.105 63.2345ZM183.021 67.1436C181.457 67.8308 179.903 68.5208 178.361 69.2135L175.903 63.7399C177.461 63.0406 179.029 62.344 180.608 61.6504L183.021 67.1436ZM173.764 71.3C172.242 71.9982 170.731 72.6991 169.23 73.4026L166.683 67.9701C168.199 67.2595 169.725 66.5516 171.261 65.8466L173.764 71.3ZM164.76 75.5212C163.281 76.23 161.812 76.9414 160.354 77.6553L157.716 72.2666C159.189 71.5451 160.673 70.8263 162.168 70.1102L164.76 75.5212ZM156.011 79.8048C154.502 80.5601 153.004 81.3182 151.517 82.079L148.783 76.738C150.286 75.9688 151.8 75.2025 153.326 74.439L156.011 79.8048ZM146.994 84.4216C145.498 85.2053 144.015 85.9918 142.543 86.7809L139.707 81.4935C141.196 80.6951 142.696 79.8996 144.209 79.107L146.994 84.4216ZM138.166 89.1565C136.719 89.9511 135.284 90.7483 133.861 91.5481L130.921 86.3179C132.361 85.5083 133.814 84.7013 135.278 83.8973L138.166 89.1565ZM129.63 93.9552C128.214 94.7705 126.81 95.5884 125.418 96.4088L122.371 91.2403C123.78 90.4092 125.202 89.5808 126.637 88.7552L129.63 93.9552ZM121.023 99.0336C119.572 99.9114 118.135 100.792 116.712 101.675L113.548 96.5776C114.99 95.682 116.447 94.7895 117.917 93.8999L121.023 99.0336ZM112.486 104.333C111.091 105.222 109.71 106.113 108.344 107.007L105.06 101.985C106.446 101.078 107.847 100.174 109.262 99.2728L112.486 104.333ZM104.286 109.696C102.934 110.603 101.597 111.513 100.274 112.426L96.8676 107.487C98.2112 106.56 99.5689 105.636 100.941 104.715L104.286 109.696ZM96.0831 115.359C94.7023 116.339 93.3377 117.322 91.9895 118.308L88.4484 113.464C89.8193 112.462 91.2063 111.463 92.6095 110.466L96.0831 115.359ZM87.9934 121.273C86.6776 122.263 85.378 123.257 84.0947 124.253L80.4165 119.512C81.7229 118.499 83.0454 117.488 84.3841 116.48L87.9934 121.273ZM80.2934 127.247C78.9913 128.289 77.7068 129.333 76.4399 130.379L72.6191 125.753C73.9105 124.686 75.2193 123.622 76.5456 122.562L80.2934 127.247ZM72.5541 133.643C71.2777 134.733 70.0201 135.826 68.7814 136.921L64.8071 132.426C66.0716 131.308 67.3549 130.193 68.6569 129.081L72.5541 133.643ZM65.1217 140.214C63.9206 141.314 62.7383 142.416 61.5748 143.52L57.4446 139.168C58.6342 138.039 59.8426 136.912 61.0697 135.789L65.1217 140.214ZM58.0547 146.923C56.8403 148.12 55.6478 149.318 54.4771 150.519L50.1808 146.331C51.3801 145.101 52.6011 143.873 53.8438 142.649L58.0547 146.923ZM51.0304 154.128C49.9033 155.333 48.798 156.54 47.7145 157.749L43.2465 153.744C44.3587 152.503 45.4927 151.265 46.6484 150.03L51.0304 154.128ZM44.5291 161.381C43.4482 162.641 42.3907 163.903 41.3567 165.167L36.7134 161.367C37.7771 160.067 38.8644 158.769 39.9751 157.474L44.5291 161.381ZM38.2169 169.101C37.1954 170.414 36.1991 171.728 35.2278 173.044L30.4003 169.481C31.4021 168.124 32.429 166.769 33.4812 165.416L38.2169 169.101ZM32.3891 176.996C31.4651 178.319 30.5663 179.643 29.6926 180.967L24.6837 177.664C25.5873 176.294 26.5162 174.926 27.4705 173.56L32.3891 176.996ZM26.9771 185.219C26.1006 186.637 25.2527 188.056 24.4333 189.476L19.2366 186.477C20.0865 185.004 20.9654 183.533 21.8733 182.064L26.9771 185.219ZM22.0609 193.737C21.2986 195.158 20.5648 196.579 19.8594 198.001L14.4846 195.334C15.2187 193.855 15.9817 192.377 16.7737 190.9L22.0609 193.737ZM17.7209 202.503C17.0346 204.015 16.3803 205.526 15.7579 207.038L10.2097 204.754C10.8595 203.176 11.5421 201.598 12.2575 200.023L17.7209 202.503ZM13.9864 211.572C13.4277 213.083 12.9009 214.594 12.4057 216.104L6.70446 214.234C7.22307 212.653 7.77449 211.072 8.35871 209.491L13.9864 211.572ZM10.9539 220.846C10.5038 222.429 10.0885 224.012 9.70798 225.592L3.87462 224.188C4.27445 222.527 4.71046 220.866 5.18265 219.205L10.9539 220.846ZM8.67034 230.331C8.35687 231.92 8.07851 233.508 7.83515 235.095L1.90454 234.185C2.16088 232.514 2.45394 230.842 2.78373 229.17L8.67034 230.331ZM7.19729 239.964C7.02135 241.585 6.88205 243.205 6.77931 244.821L0.791383 244.441C0.899818 242.735 1.04679 241.026 1.23231 239.317L7.19729 239.964ZM6.58066 249.665C6.55074 251.288 6.55779 252.908 6.60175 254.525L0.603965 254.688C0.557525 252.98 0.550082 251.268 0.581675 249.554L6.58066 249.665ZM6.84582 259.39C6.96436 261.009 7.12009 262.625 7.31294 264.237L1.3554 264.95C1.15165 263.246 0.987107 261.539 0.861845 259.829L6.84582 259.39ZM8.00263 269.062C8.26694 270.651 8.5676 272.237 8.9046 273.819L3.03629 275.069C2.68059 273.399 2.36312 271.725 2.08396 270.047L8.00263 269.062ZM10.0246 278.553C10.4342 280.127 10.8803 281.697 11.3626 283.263L5.62841 285.029C5.12022 283.379 4.65004 281.724 4.21798 280.064L10.0246 278.553ZM12.898 287.891C13.4356 289.402 14.0073 290.908 14.6133 292.411L9.04888 294.655C8.41206 293.076 7.81078 291.492 7.24514 289.902L12.898 287.891ZM16.5339 296.904C17.2083 298.397 17.9171 299.886 18.6601 301.369L13.2952 304.056C12.5168 302.502 11.7736 300.941 11.0658 299.374L16.5339 296.904ZM20.9151 305.665C21.6873 307.071 22.4907 308.472 23.3253 309.869L18.1754 312.947C17.3037 311.489 16.4639 310.024 15.6561 308.554L20.9151 305.665ZM25.9229 314.042C26.82 315.428 27.7484 316.808 28.708 318.183L23.7877 321.617C22.7888 320.186 21.8215 318.747 20.8861 317.302L25.9229 314.042ZM31.5433 322.108C32.5039 323.394 33.4923 324.674 34.5085 325.949L29.8163 329.689C28.7617 328.365 27.7352 327.036 26.7368 325.699L31.5433 322.108ZM37.6404 329.758C38.7121 331.022 39.8117 332.281 40.939 333.534L36.4791 337.547C35.3127 336.251 34.1743 334.948 33.0638 333.638L37.6404 329.758ZM44.2581 337.12C45.3618 338.281 46.4898 339.436 47.642 340.585L43.4043 344.833C42.2154 343.647 41.0508 342.454 39.9106 341.255L44.2581 337.12ZM51.1715 344.017C52.3723 345.156 53.5973 346.288 54.8466 347.415L50.8281 351.871C49.5424 350.711 48.2809 349.545 47.0435 348.372L51.1715 344.017ZM58.6138 350.732C59.821 351.769 61.0492 352.802 62.2984 353.829L58.4882 358.463C57.2055 357.409 55.9437 356.348 54.7028 355.282L58.6138 350.732ZM66.1089 356.893C67.4 357.909 68.7121 358.919 70.0452 359.923L66.4344 364.715C65.0684 363.686 63.7232 362.65 62.3988 361.608L66.1089 356.893ZM74.1072 362.919C75.4399 363.881 76.7923 364.838 78.1643 365.789L74.7463 370.72C73.343 369.748 71.9592 368.769 70.5949 367.784L74.1072 362.919ZM82.1634 368.508C83.5145 369.408 84.8836 370.304 86.2707 371.194L83.0308 376.244C81.6143 375.335 80.2157 374.42 78.8349 373.5L82.1634 368.508ZM90.4863 373.847C91.9095 374.726 93.3507 375.599 94.8099 376.466L91.744 381.624C90.2561 380.739 88.7861 379.849 87.3339 378.952L90.4863 373.847ZM99.1447 378.996C100.533 379.791 101.937 380.581 103.356 381.366L100.452 386.616C99.0067 385.817 97.5769 385.012 96.1624 384.202L99.1447 378.996ZM107.66 383.705C109.11 384.48 110.576 385.249 112.057 386.013L109.307 391.345C107.8 390.568 106.309 389.786 104.833 388.998L107.66 383.705ZM116.546 388.288C118.058 389.041 119.586 389.788 121.129 390.53L118.529 395.937C116.961 395.184 115.409 394.424 113.872 393.659L116.546 388.288ZM125.546 392.619C127.008 393.299 128.483 393.974 129.971 394.644L127.509 400.115C125.998 399.435 124.5 398.75 123.015 398.059L125.546 392.619ZM134.477 396.639C135.993 397.3 137.521 397.955 139.063 398.604L136.733 404.133C135.169 403.474 133.618 402.81 132.081 402.14L134.477 396.639ZM143.729 400.538C145.297 401.178 146.879 401.812 148.474 402.441L146.273 408.023C144.657 407.386 143.053 406.743 141.463 406.094L143.729 400.538ZM153.018 404.205C154.528 404.782 156.048 405.353 157.581 405.92L155.498 411.547C153.946 410.973 152.406 410.394 150.877 409.81L153.018 404.205ZM162.212 407.608C163.767 408.165 165.334 408.718 166.912 409.266L164.944 414.934C163.347 414.38 161.761 413.82 160.187 413.256L162.212 407.608ZM171.681 410.895C173.282 411.433 174.895 411.967 176.519 412.495L174.663 418.201C173.02 417.666 171.389 417.127 169.769 416.583L171.681 410.895ZM181.272 414.016C182.809 414.5 184.356 414.98 185.913 415.455L184.161 421.194C182.587 420.714 181.023 420.229 179.469 419.739L181.272 414.016ZM190.613 416.868C192.19 417.334 193.777 417.796 195.373 418.253L193.722 424.021C192.109 423.559 190.505 423.093 188.912 422.621L190.613 416.868ZM200.194 419.611C201.81 420.059 203.437 420.502 205.073 420.941L203.519 426.737C201.867 426.293 200.224 425.845 198.591 425.393L200.194 419.611ZM210.013 422.244C211.601 422.655 213.199 423.063 214.805 423.466L213.345 429.286C211.723 428.879 210.111 428.467 208.507 428.052L210.013 422.244ZM219.534 424.633C221.12 425.018 222.713 425.399 224.316 425.776L222.943 431.617C221.327 431.237 219.718 430.852 218.118 430.464L219.534 424.633ZM229.149 426.892C230.769 427.26 232.398 427.624 234.035 427.984L232.748 433.844C231.097 433.482 229.454 433.115 227.82 432.743L229.149 426.892ZM238.972 429.049C240.627 429.399 242.29 429.746 243.962 430.087L242.76 435.966C241.074 435.621 239.397 435.272 237.728 434.918L238.972 429.049ZM248.895 431.078C250.479 431.391 252.071 431.7 253.67 432.004L252.547 437.898C250.935 437.591 249.331 437.28 247.734 436.965L248.895 431.078ZM258.49 432.906C260.104 433.203 261.726 433.496 263.355 433.784L262.309 439.692C260.667 439.401 259.032 439.106 257.405 438.807L258.49 432.906ZM268.266 434.638C269.911 434.919 271.563 435.195 273.223 435.468L272.251 441.389C270.579 441.114 268.914 440.835 267.257 440.553L268.266 434.638ZM278.225 436.273C279.899 436.537 281.582 436.797 283.272 437.053L282.374 442.985C280.671 442.728 278.977 442.466 277.29 442.2L278.225 436.273ZM288.193 437.783C289.795 438.017 291.404 438.246 293.02 438.471L292.19 444.414C290.563 444.187 288.943 443.956 287.329 443.721L288.193 437.783ZM297.888 439.137C299.517 439.355 301.153 439.569 302.795 439.78L302.032 445.731C300.379 445.519 298.732 445.304 297.092 445.084L297.888 439.137ZM307.743 440.4C309.399 440.603 311.061 440.802 312.73 440.998L312.033 446.957C310.353 446.76 308.68 446.56 307.013 446.356L307.743 440.4ZM317.758 441.572C319.44 441.759 321.129 441.943 322.825 442.123L322.192 448.089C320.486 447.908 318.786 447.724 317.093 447.535L317.758 441.572ZM327.848 442.642C329.458 442.804 331.074 442.963 332.695 443.118L332.124 449.091C330.492 448.934 328.867 448.775 327.247 448.612L327.848 442.642ZM337.578 443.573C339.212 443.721 340.851 443.865 342.497 444.006L341.984 449.984C340.329 449.842 338.68 449.697 337.037 449.548L337.578 443.573ZM347.45 444.418C349.107 444.552 350.77 444.682 352.439 444.809L351.985 450.792C350.307 450.665 348.634 450.534 346.967 450.399L347.45 444.418ZM357.463 445.178C359.144 445.298 360.831 445.413 362.523 445.525L362.126 451.512C360.424 451.4 358.728 451.283 357.038 451.163L357.463 445.178ZM367.617 445.851C368.469 445.903 369.322 445.955 370.177 446.005L369.823 451.995C368.964 451.944 368.106 451.892 367.249 451.84L367.617 445.851Z" fill="black"/>
</svg>
