<svg width="396" height="444" viewBox="0 0 396 444" fill="none" xmlns="http://www.w3.org/2000/svg">
<path d="M33.3152 423.08C32.8072 423.735 32.9259 424.677 33.5804 425.185L44.2448 433.463C44.8992 433.971 45.8415 433.852 46.3494 433.197C46.8574 432.543 46.7387 431.601 46.0843 431.093L36.6048 423.735L43.9628 414.255C44.4707 413.601 44.352 412.659 43.6976 412.151C43.0431 411.643 42.1008 411.761 41.5929 412.416L33.3152 423.08ZM0.763061 4.4813C1.60504 4.61545 2.44574 4.75016 3.28506 4.88544L3.76242 1.92366C2.9213 1.78809 2.07883 1.65309 1.23505 1.51866L0.763061 4.4813ZM8.30524 5.70386C9.9733 5.97892 11.636 6.25622 13.2935 6.53575L13.7924 3.57752C12.1313 3.29739 10.465 3.01949 8.7933 2.74384L8.30524 5.70386ZM18.2499 7.38099C19.8967 7.66496 21.5382 7.95113 23.1744 8.23951L23.6951 5.28504C22.0553 4.99603 20.4102 4.70921 18.7597 4.42462L18.2499 7.38099ZM28.067 9.11118C29.6926 9.40393 31.3128 9.69885 32.9277 9.99594L33.4705 7.04545C31.8519 6.74768 30.228 6.45209 28.5987 6.15868L28.067 9.11118ZM37.7564 10.8937C39.3607 11.1951 40.9596 11.4986 42.5532 11.8043L43.1183 8.85798C41.521 8.55159 39.9183 8.24734 38.3103 7.94525L37.7564 10.8937ZM47.3852 12.7408C49.0578 13.0684 50.7244 13.3983 52.385 13.7306L52.9736 10.7889C51.3089 10.4558 49.6383 10.1251 47.9618 9.79677L47.3852 12.7408ZM57.349 14.7344C58.9978 15.0713 60.6405 15.4105 62.2773 15.7521L62.8901 12.8154C61.2493 12.473 59.6024 12.1329 57.9497 11.7951L57.349 14.7344ZM67.1698 16.7837C68.7946 17.1298 70.4135 17.4782 72.0265 17.8289L72.6638 14.8974C71.0468 14.5458 69.4238 14.1965 67.7949 13.8495L67.1698 16.7837ZM76.8473 18.8878C78.4483 19.243 80.0433 19.6004 81.6323 19.9601L82.2946 17.0341C80.7014 16.6735 79.1022 16.3151 77.4971 15.959L76.8473 18.8878ZM86.3814 21.0458C88.0049 21.4207 89.6221 21.7978 91.2329 22.1773L91.9208 19.2573C90.3056 18.8768 88.6841 18.4986 87.0563 18.1227L86.3814 21.0458ZM96.1855 23.3563C97.8297 23.7517 99.4672 24.1495 101.098 24.5498L101.813 21.6363C100.178 21.2349 98.5357 20.8359 96.887 20.4394L96.1855 23.3563ZM105.97 25.7578C107.587 26.1629 109.198 26.5703 110.802 26.9801L111.544 24.0735C109.936 23.6625 108.321 23.2539 106.699 22.8477L105.97 25.7578ZM115.593 28.2167C117.183 28.6312 118.767 29.0481 120.344 29.4673L121.114 26.568C119.533 26.1475 117.944 25.7294 116.349 25.3137L115.593 28.2167ZM125.054 30.7318C126.64 31.1617 128.219 31.5941 129.791 32.0287L130.591 29.1372C129.014 28.7012 127.43 28.2675 125.839 27.8363L125.054 30.7318ZM134.707 33.4017C136.337 33.8619 137.961 34.3247 139.576 34.7899L140.407 31.9071C138.786 31.4403 137.157 30.9761 135.521 30.5145L134.707 33.4017ZM144.4 36.1932C146.001 36.6635 147.593 37.1362 149.178 37.6114L150.04 34.7378C148.45 34.261 146.852 33.7867 145.246 33.3149L144.4 36.1932ZM153.911 39.0444C155.481 39.5245 157.043 40.007 158.597 40.492L159.491 37.6281C157.931 37.1415 156.363 36.6573 154.788 36.1756L153.911 39.0444ZM163.238 41.954C164.823 42.4582 166.4 42.9649 167.968 43.4741L168.894 40.6207C167.32 40.1097 165.738 39.6011 164.148 39.0952L163.238 41.954ZM172.811 45.0626C174.416 45.5948 176.013 46.1296 177.601 46.6669L178.563 43.8252C176.969 43.2858 175.366 42.7491 173.755 42.215L172.811 45.0626ZM182.34 48.2869C183.911 48.8294 185.473 49.3745 187.026 49.9222L188.023 47.0929C186.464 46.5431 184.896 45.9959 183.319 45.4512L182.34 48.2869ZM191.66 51.5727C193.196 52.1254 194.723 52.6806 196.242 53.2382L197.276 50.4221C195.751 49.8622 194.218 49.3048 192.676 48.7499L191.66 51.5727ZM200.817 54.936C202.421 55.5371 204.015 56.141 205.599 56.7477L206.672 53.9462C205.081 53.337 203.481 52.7305 201.87 52.1268L200.817 54.936ZM210.32 58.5759C211.884 59.188 213.438 59.8028 214.982 60.4202L216.096 57.6348C214.545 57.0145 212.984 56.397 211.414 55.7823L210.32 58.5759ZM219.583 62.2806C221.107 62.9033 222.621 63.5287 224.125 64.1566L225.281 61.3882C223.77 60.7573 222.249 60.1291 220.718 59.5035L219.583 62.2806ZM228.607 66.0481C230.125 66.6955 231.632 67.3456 233.128 67.9982L234.328 65.2483C232.824 64.5924 231.309 63.9392 229.784 63.2887L228.607 66.0481ZM237.8 70.059C239.346 70.7488 240.88 71.4414 242.403 72.1367L243.649 69.4078C242.118 68.7088 240.576 68.0127 239.023 67.3194L237.8 70.059ZM246.936 74.231C248.436 74.9318 249.924 75.6354 251.4 76.3416L252.695 73.6352C251.21 72.9251 249.714 72.2177 248.206 71.5132L246.936 74.231ZM255.795 78.4682C257.249 79.1797 258.691 79.8938 260.121 80.6105L261.465 77.9284C260.026 77.2075 258.576 76.4893 257.114 75.7737L255.795 78.4682ZM264.676 82.9215C266.188 83.6981 267.686 84.4775 269.171 85.2598L270.569 82.6057C269.075 81.8185 267.568 81.0343 266.047 80.2531L264.676 82.9215ZM273.585 87.6152C275.043 88.4031 276.488 89.1938 277.919 89.9872L279.374 87.3634C277.933 86.5647 276.479 85.7689 275.012 84.9759L273.585 87.6152ZM282.173 92.3755C283.578 93.1749 284.971 93.977 286.349 94.7816L287.861 92.1907C286.473 91.3803 285.071 90.5727 283.656 89.7678L282.173 92.3755ZM290.76 97.3926C292.215 98.2658 293.654 99.1421 295.078 100.021L296.654 97.4686C295.22 96.5828 293.77 95.7001 292.304 94.8204L290.76 97.3926ZM299.302 102.667C300.694 103.552 302.07 104.439 303.431 105.329L305.073 102.819C303.701 101.921 302.314 101.026 300.911 100.135L299.302 102.667ZM307.467 108.008C308.852 108.941 310.22 109.877 311.571 110.815L313.283 108.351C311.92 107.404 310.54 106.46 309.143 105.52L307.467 108.008ZM315.724 113.747C317.09 114.727 318.438 115.711 319.767 116.696L321.555 114.287C320.212 113.292 318.852 112.299 317.474 111.31L315.724 113.747ZM323.7 119.662C324.992 120.654 326.266 121.648 327.522 122.644L329.387 120.294C328.118 119.287 326.831 118.283 325.526 117.282L323.7 119.662ZM331.365 125.75C332.684 126.835 333.982 127.924 335.258 129.015L337.208 126.735C335.917 125.631 334.605 124.53 333.271 123.433L331.365 125.75ZM339.021 132.297C340.254 133.393 341.465 134.492 342.654 135.594L344.693 133.393C343.488 132.278 342.262 131.165 341.015 130.055L339.021 132.297ZM346.156 138.906C347.374 140.082 348.566 141.26 349.735 142.441L351.867 140.331C350.683 139.134 349.474 137.939 348.24 136.748L346.156 138.906ZM353.234 146.063C354.375 147.273 355.491 148.485 356.581 149.7L358.813 147.697C357.707 146.463 356.575 145.233 355.417 144.005L353.234 146.063ZM359.773 153.351C360.847 154.611 361.894 155.874 362.913 157.139L365.249 155.256C364.212 153.97 363.148 152.686 362.057 151.405L359.773 153.351ZM366.022 161.115C367.028 162.443 368.005 163.772 368.951 165.104L371.396 163.366C370.432 162.009 369.437 160.654 368.413 159.303L366.022 161.115ZM371.7 169.103C372.614 170.48 373.496 171.859 374.347 173.239L376.901 171.666C376.032 170.256 375.132 168.849 374.199 167.444L371.7 169.103ZM376.902 177.56C377.719 179.002 378.501 180.445 379.248 181.89L381.913 180.511C381.148 179.032 380.347 177.556 379.512 176.081L376.902 177.56ZM381.386 186.226C382.094 187.736 382.765 189.248 383.397 190.76L386.165 189.602C385.516 188.051 384.829 186.501 384.103 184.952L381.386 186.226ZM385.21 195.38C385.775 196.92 386.301 198.461 386.787 200.003L389.648 199.099C389.148 197.514 388.607 195.93 388.026 194.347L385.21 195.38ZM388.14 204.668C388.566 206.278 388.949 207.888 389.288 209.498L392.224 208.878C391.873 207.219 391.479 205.56 391.041 203.902L388.14 204.668ZM390.179 214.324C390.433 215.933 390.644 217.54 390.813 219.147L393.796 218.835C393.623 217.175 393.405 215.516 393.142 213.856L390.179 214.324ZM391.194 224.048C391.276 225.685 391.314 227.321 391.308 228.955L394.308 228.967C394.315 227.278 394.275 225.588 394.19 223.896L391.194 224.048ZM391.154 233.853C391.059 235.478 390.919 237.101 390.734 238.721L393.715 239.061C393.905 237.386 394.05 235.709 394.149 234.03L391.154 233.853ZM390.05 243.563C389.778 245.175 389.461 246.784 389.1 248.392L392.027 249.049C392.4 247.39 392.727 245.728 393.008 244.063L390.05 243.563ZM387.896 253.162C387.462 254.711 386.986 256.257 386.469 257.801L389.313 258.755C389.846 257.164 390.337 255.569 390.785 253.972L387.896 253.162ZM384.791 262.423C384.19 263.961 383.547 265.496 382.862 267.027L385.601 268.252C386.305 266.677 386.966 265.098 387.585 263.515L384.791 262.423ZM380.789 271.399C380.065 272.841 379.304 274.28 378.505 275.715L381.127 277.174C381.946 275.702 382.727 274.225 383.47 272.744L380.789 271.399ZM375.996 280.01C375.136 281.414 374.24 282.815 373.307 284.211L375.802 285.878C376.756 284.449 377.674 283.015 378.554 281.577L375.996 280.01ZM370.559 288.167C369.609 289.482 368.627 290.793 367.612 292.101L369.982 293.94C371.018 292.606 372.021 291.267 372.991 289.923L370.559 288.167ZM364.469 296.011C363.418 297.273 362.336 298.532 361.223 299.786L363.467 301.777C364.601 300.499 365.703 299.217 366.775 297.929L364.469 296.011ZM357.971 303.345C356.858 304.528 355.718 305.706 354.549 306.88L356.675 308.997C357.864 307.803 359.024 306.604 360.156 305.401L357.971 303.345ZM350.958 310.391C349.748 311.542 348.51 312.689 347.245 313.832L349.256 316.058C350.54 314.899 351.797 313.734 353.026 312.564L350.958 310.391ZM343.646 317.007C342.423 318.061 341.175 319.112 339.904 320.158L341.81 322.475C343.099 321.414 344.364 320.349 345.605 319.28L343.646 317.007ZM336.018 323.285C334.699 324.323 333.356 325.357 331.988 326.387L333.793 328.783C335.177 327.741 336.537 326.694 337.873 325.643L336.018 323.285ZM328.016 329.317C326.721 330.253 325.406 331.185 324.071 332.114L325.783 334.577C327.133 333.638 328.463 332.695 329.773 331.749L328.016 329.317ZM320.004 334.887C318.629 335.808 317.233 336.724 315.817 337.636L317.441 340.158C318.872 339.237 320.282 338.311 321.673 337.38L320.004 334.887ZM311.508 340.361C310.119 341.223 308.712 342.082 307.287 342.936L308.829 345.509C310.267 344.647 311.688 343.781 313.09 342.91L311.508 340.361ZM303.12 345.391C301.714 346.206 300.291 347.017 298.851 347.824L300.319 350.441C301.771 349.627 303.206 348.809 304.624 347.987L303.12 345.391ZM294.48 350.235C293.006 351.034 291.515 351.83 290.007 352.622L291.401 355.278C292.921 354.48 294.425 353.678 295.911 352.872L294.48 350.235ZM285.472 354.964C284.054 355.685 282.621 356.403 281.174 357.116L282.502 359.807C283.959 359.088 285.403 358.365 286.832 357.639L285.472 354.964ZM276.789 359.248C275.313 359.955 273.823 360.658 272.318 361.358L273.583 364.078C275.098 363.374 276.599 362.666 278.085 361.954L276.789 359.248ZM267.759 363.447C266.225 364.139 264.677 364.828 263.113 365.513L264.318 368.261C265.891 367.571 267.449 366.878 268.994 366.181L267.759 363.447ZM258.448 367.529C256.98 368.154 255.5 368.776 254.007 369.394L255.156 372.166C256.657 371.544 258.147 370.918 259.624 370.289L258.448 367.529ZM249.492 371.24C247.974 371.852 246.444 372.461 244.902 373.066L245.998 375.859C247.549 375.25 249.088 374.638 250.614 374.023L249.492 371.24ZM240.238 374.872C238.671 375.471 237.092 376.066 235.5 376.657L236.546 379.469C238.146 378.875 239.733 378.276 241.309 377.675L240.238 374.872ZM230.688 378.422C229.162 378.974 227.626 379.522 226.078 380.068L227.075 382.897C228.631 382.349 230.175 381.797 231.708 381.243L230.688 378.422ZM221.494 381.663C219.955 382.191 218.406 382.717 216.846 383.239L217.799 386.084C219.366 385.559 220.923 385.031 222.469 384.5L221.494 381.663ZM212.134 384.797C210.553 385.313 208.961 385.826 207.359 386.336L208.268 389.195C209.878 388.683 211.477 388.168 213.065 387.649L212.134 384.797ZM202.519 387.856C200.895 388.359 199.261 388.859 197.616 389.356L198.483 392.228C200.135 391.729 201.777 391.227 203.407 390.721L202.519 387.856ZM192.937 390.751C191.391 391.207 189.836 391.659 188.272 392.109L189.101 394.992C190.671 394.541 192.232 394.086 193.785 393.629L192.937 390.751ZM183.551 393.449C181.969 393.893 180.377 394.334 178.776 394.772L179.568 397.665C181.175 397.226 182.773 396.783 184.361 396.338L183.551 393.449ZM173.945 396.077C172.326 396.509 170.697 396.938 169.059 397.364L169.814 400.267C171.458 399.84 173.093 399.409 174.719 398.975L173.945 396.077ZM164.118 398.633C162.498 399.044 160.87 399.451 159.232 399.856L159.952 402.769C161.595 402.362 163.23 401.953 164.855 401.541L164.118 398.633ZM154.53 401.005C152.955 401.385 151.371 401.763 149.78 402.137L150.468 405.057C152.064 404.681 153.653 404.303 155.234 403.921L154.53 401.005ZM144.982 403.253C143.374 403.623 141.759 403.989 140.135 404.353L140.791 407.281C142.42 406.916 144.041 406.548 145.653 406.177L144.982 403.253ZM135.241 405.436C133.602 405.795 131.954 406.15 130.299 406.503L130.924 409.437C132.584 409.083 134.237 408.727 135.882 408.367L135.241 405.436ZM125.308 407.552C123.668 407.893 122.02 408.231 120.364 408.566L120.959 411.506C122.62 411.17 124.273 410.831 125.918 410.49L125.308 407.552ZM115.614 409.515C114.024 409.829 112.426 410.14 110.822 410.449L111.389 413.395C112.998 413.085 114.6 412.773 116.195 412.458L115.614 409.515ZM105.988 411.368C104.37 411.672 102.744 411.973 101.112 412.272L101.652 415.223C103.289 414.923 104.919 414.621 106.542 414.317L105.988 411.368ZM96.1936 413.16C94.5472 413.453 92.8937 413.744 91.2332 414.032L91.7462 416.988C93.4112 416.699 95.0691 416.407 96.72 416.113L96.1936 413.16ZM86.2306 414.889C84.5561 415.172 82.8745 415.452 81.1858 415.73L81.6726 418.69C83.3656 418.412 85.0515 418.131 86.7305 417.847L86.2306 414.889ZM76.3184 416.52C74.7236 416.775 73.1227 417.028 71.5157 417.279L71.9779 420.243C73.589 419.992 75.194 419.738 76.7927 419.482L76.3184 416.52ZM66.6759 418.024C65.0564 418.27 63.4308 418.513 61.7989 418.754L62.2374 421.722C63.8732 421.48 65.5028 421.236 67.1262 420.99L66.6759 418.024ZM56.8849 419.47C55.2408 419.707 53.5904 419.941 51.9338 420.172L52.3489 423.143C54.0094 422.911 55.6636 422.677 57.3117 422.44L56.8849 419.47ZM46.9455 420.859C45.2766 421.085 43.6014 421.31 41.9201 421.531L42.3121 424.505C43.9973 424.283 45.6763 424.059 47.349 423.832L46.9455 420.859ZM36.8575 422.189C36.0108 422.297 35.1625 422.405 34.3126 422.512L34.6876 425.488C35.5393 425.381 36.3895 425.273 37.2382 425.164L36.8575 422.189ZM32.1302 422.161C31.1143 423.469 31.3518 425.354 32.6606 426.37L53.9894 442.925C55.2983 443.941 57.1829 443.704 58.1988 442.395C59.2147 441.086 58.9772 439.201 57.6684 438.186L38.7095 423.47L53.4254 404.511C54.4413 403.202 54.2038 401.317 52.895 400.301C51.5862 399.285 49.7016 399.523 48.6857 400.832L32.1302 422.161ZM0.527038 5.96262C1.36816 6.09662 2.20795 6.23119 3.04639 6.36633L4.0011 0.442769C3.15909 0.307059 2.31573 0.171918 1.47107 0.0373467L0.527038 5.96262ZM8.06119 7.18388C9.72745 7.45864 11.3884 7.73564 13.0441 8.01486L14.0419 2.09841C12.379 1.81797 10.7108 1.53977 9.03735 1.26382L8.06119 7.18388ZM17.995 8.85918C19.64 9.14283 21.2797 9.42869 22.9141 9.71674L23.9555 3.80781C22.3138 3.51847 20.6668 3.23134 19.0146 2.94644L17.995 8.85918ZM27.8012 10.5874C29.4249 10.8798 31.0432 11.1744 32.6563 11.4712L33.7419 5.5702C32.1214 5.2721 30.4957 4.97617 28.8646 4.68243L27.8012 10.5874ZM37.4794 12.3679C39.0818 12.6689 40.6789 12.9721 42.2706 13.2774L43.4009 7.38484C41.8017 7.07809 40.1971 6.77348 38.5873 6.47104L37.4794 12.3679ZM47.0969 14.2129C48.7675 14.54 50.4321 14.8696 52.0907 15.2014L53.2679 9.31804C51.6012 8.98457 49.9286 8.65346 48.2501 8.32473L47.0969 14.2129ZM57.0487 16.204C58.6954 16.5405 60.3362 16.8793 61.9709 17.2205L63.1965 11.347C61.5536 11.0042 59.9048 10.6637 58.25 10.3255L57.0487 16.204ZM66.8573 18.2507C68.4801 18.5964 70.0969 18.9444 71.7078 19.2947L72.9825 13.4317C71.3634 13.0796 69.7384 12.7299 68.1074 12.3824L66.8573 18.2507ZM76.5224 20.3522C78.1213 20.7069 79.7142 21.0639 81.3011 21.4231L82.6257 15.5711C81.0305 15.21 79.4292 14.8512 77.822 14.4946L76.5224 20.3522ZM86.0439 22.5074C87.6653 22.8817 89.2803 23.2584 90.8889 23.6374L92.2648 17.7973C90.6474 17.4162 89.0237 17.0375 87.3937 16.6612L86.0439 22.5074ZM95.8348 24.8147C97.4767 25.2096 99.1119 25.6069 100.74 26.0066L102.171 20.1795C100.533 19.7776 98.8887 19.3781 97.2378 18.981L95.8348 24.8147ZM105.605 27.2128C107.22 27.6173 108.829 28.0242 110.43 28.4334L111.916 22.6202C110.305 22.2086 108.687 21.7994 107.063 21.3926L105.605 27.2128ZM115.214 29.6682C116.802 30.0821 118.384 30.4983 119.958 30.9169L121.5 25.1183C119.916 24.6972 118.325 24.2785 116.728 23.8622L115.214 29.6682ZM124.662 32.1795C126.245 32.6088 127.822 33.0405 129.392 33.4745L130.99 27.6914C129.411 27.2548 127.825 26.8205 126.231 26.3885L124.662 32.1795ZM134.299 34.8453C135.928 35.3048 137.548 35.7668 139.161 36.2313L140.822 30.4657C139.198 29.9982 137.567 29.5332 135.929 29.0708L134.299 34.8453ZM143.977 37.6324C145.575 38.1019 147.165 38.5738 148.748 39.0483L150.471 33.301C148.878 32.8234 147.277 32.3483 145.669 31.8758L143.977 37.6324ZM153.472 40.4788C155.039 40.9581 156.599 41.4398 158.151 41.9239L159.937 36.1961C158.375 35.7087 156.805 35.2237 155.227 34.7412L153.472 40.4788ZM162.783 43.3834C164.365 43.8867 165.939 44.3925 167.505 44.9008L169.358 39.194C167.781 38.682 166.196 38.1726 164.602 37.6658L162.783 43.3834ZM172.339 46.4865C173.942 47.0176 175.535 47.5514 177.121 48.0878L179.044 42.4044C177.447 41.864 175.841 41.3262 174.227 40.7911L172.339 46.4865ZM181.85 49.7047C183.418 50.2462 184.977 50.7903 186.527 51.3368L188.522 45.6782C186.96 45.1274 185.389 44.5791 183.809 44.0334L181.85 49.7047ZM191.152 52.9841C192.685 53.5357 194.209 54.0898 195.725 54.6463L197.793 49.0141C196.265 48.453 194.729 47.8945 193.184 47.3385L191.152 52.9841ZM200.291 56.3405C201.891 56.9404 203.482 57.5431 205.062 58.1485L207.208 52.5455C205.614 51.9349 204.011 51.3272 202.397 50.7223L200.291 56.3405ZM209.773 59.9727C211.334 60.5835 212.884 61.1969 214.425 61.813L216.653 56.242C215.098 55.6204 213.534 55.0015 211.96 54.3854L209.773 59.9727ZM219.016 63.6691C220.536 64.2904 222.047 64.9143 223.547 65.5408L225.859 60.004C224.344 59.3717 222.82 58.742 221.286 58.1149L219.016 63.6691ZM228.018 67.4278C229.532 68.0736 231.036 68.7221 232.529 69.3732L234.927 63.8734C233.419 63.2159 231.901 62.5611 230.373 61.909L228.018 67.4278ZM237.189 71.4288C238.731 72.1168 240.261 72.8076 241.779 73.5012L244.272 68.0433C242.737 67.3426 241.191 66.6446 239.634 65.9496L237.189 71.4288ZM246.301 75.5899C247.797 76.2889 249.281 76.9905 250.753 77.6948L253.342 72.282C251.853 71.57 250.353 70.8607 248.841 70.1542L246.301 75.5899ZM255.136 79.8155C256.585 80.525 258.023 81.237 259.449 81.9516L262.137 76.5873C260.694 75.8643 259.24 75.144 257.774 74.4265L255.136 79.8155ZM263.991 84.2558C265.498 85.03 266.992 85.807 268.472 86.5869L271.269 81.2786C269.77 80.489 268.258 79.7024 266.733 78.9188L263.991 84.2558ZM272.872 88.9348C274.326 89.7202 275.766 90.5083 277.192 91.2991L280.101 86.0515C278.656 85.2502 277.197 84.4517 275.725 83.6562L272.872 88.9348ZM281.431 93.6794C282.832 94.4761 284.219 95.2753 285.593 96.0771L288.618 90.8952C287.224 90.082 285.818 89.2715 284.398 88.4639L281.431 93.6794ZM289.988 98.6787C291.438 99.5487 292.872 100.422 294.29 101.297L297.442 96.1923C296.003 95.3032 294.547 94.4172 293.076 93.5343L289.988 98.6787ZM298.497 103.933C299.884 104.814 301.255 105.698 302.61 106.584L305.895 101.563C304.517 100.662 303.124 99.764 301.715 98.8688L298.497 103.933ZM306.629 109.252C308.008 110.181 309.37 111.113 310.716 112.047L314.139 107.119C312.77 106.168 311.384 105.22 309.981 104.275L306.629 109.252ZM314.85 114.966C316.21 115.942 317.551 116.92 318.874 117.901L322.448 113.082C321.1 112.082 319.733 111.085 318.348 110.091L314.85 114.966ZM322.787 120.852C324.073 121.839 325.34 122.828 326.589 123.819L330.319 119.119C329.044 118.107 327.75 117.098 326.439 116.092L322.787 120.852ZM330.412 126.908C331.724 127.987 333.015 129.07 334.283 130.155L338.183 125.595C336.885 124.485 335.565 123.378 334.224 122.275L330.412 126.908ZM338.024 133.417C339.249 134.507 340.453 135.6 341.634 136.694L345.712 132.293C344.5 131.17 343.267 130.051 342.012 128.934L338.024 133.417ZM345.114 139.985C346.323 141.153 347.508 142.323 348.668 143.496L352.933 139.276C351.741 138.07 350.524 136.868 349.282 135.669L345.114 139.985ZM352.143 147.092C353.276 148.293 354.383 149.497 355.464 150.702L359.93 146.695C358.815 145.452 357.674 144.212 356.508 142.976L352.143 147.092ZM358.631 154.323C359.697 155.574 360.735 156.826 361.745 158.08L366.417 154.315C365.372 153.018 364.299 151.723 363.198 150.432L358.631 154.323ZM364.827 162.021C365.824 163.337 366.791 164.654 367.728 165.973L372.619 162.497C371.646 161.127 370.642 159.76 369.608 158.397L364.827 162.021ZM370.45 169.933C371.355 171.296 372.228 172.66 373.07 174.026L378.178 170.879C377.301 169.454 376.391 168.033 375.449 166.614L370.45 169.933ZM375.597 178.3C376.404 179.725 377.178 181.152 377.916 182.579L383.245 179.821C382.471 178.326 381.662 176.832 380.817 175.342L375.597 178.3ZM380.028 186.862C380.727 188.354 381.389 189.846 382.013 191.338L387.549 189.024C386.891 187.452 386.196 185.883 385.461 184.316L380.028 186.862ZM383.802 195.896C384.359 197.416 384.877 198.935 385.357 200.454L391.079 198.648C390.571 197.04 390.023 195.434 389.435 193.83L383.802 195.896ZM386.69 205.052C387.109 206.638 387.486 208.223 387.821 209.807L393.691 208.568C393.336 206.884 392.936 205.201 392.491 203.519L386.69 205.052ZM388.697 214.558C388.948 216.141 389.155 217.723 389.321 219.304L395.288 218.678C395.112 216.993 394.89 215.307 394.624 213.622L388.697 214.558ZM389.695 224.124C389.777 225.733 389.814 227.342 389.808 228.949L395.808 228.973C395.815 227.257 395.775 225.539 395.688 223.821L389.695 224.124ZM389.657 233.765C389.563 235.362 389.425 236.958 389.244 238.552L395.205 239.23C395.399 237.528 395.546 235.824 395.646 234.118L389.657 233.765ZM388.571 243.313C388.303 244.898 387.992 246.482 387.637 248.063L393.491 249.378C393.869 247.693 394.201 246.004 394.487 244.313L388.571 243.313ZM386.452 252.757C386.024 254.282 385.556 255.804 385.046 257.324L390.735 259.231C391.277 257.617 391.774 255.999 392.229 254.376L386.452 252.757ZM383.394 261.877C382.802 263.393 382.168 264.905 381.493 266.415L386.97 268.864C387.684 267.268 388.355 265.667 388.982 264.061L383.394 261.877ZM379.448 270.726C378.734 272.149 377.983 273.569 377.195 274.986L382.437 277.903C383.267 276.413 384.058 274.917 384.811 273.417L379.448 270.726ZM374.716 279.227C373.867 280.614 372.982 281.998 372.06 283.378L377.049 286.711C378.014 285.266 378.942 283.815 379.834 282.36L374.716 279.227ZM369.342 287.289C368.404 288.59 367.432 289.887 366.428 291.181L371.167 294.86C372.214 293.512 373.227 292.159 374.207 290.801L369.342 287.289ZM363.315 295.051C362.275 296.301 361.204 297.548 360.101 298.79L364.589 302.773C365.733 301.483 366.846 300.189 367.928 298.889L363.315 295.051ZM356.878 302.317C355.776 303.489 354.645 304.658 353.486 305.822L357.738 310.055C358.937 308.851 360.107 307.642 361.248 306.428L356.878 302.317ZM349.924 309.305C348.723 310.447 347.495 311.585 346.24 312.719L350.262 317.172C351.555 316.003 352.821 314.83 354.06 313.651L349.924 309.305ZM342.667 315.871C341.452 316.918 340.213 317.961 338.951 319L342.763 323.633C344.061 322.565 345.334 321.493 346.584 320.416L342.667 315.871ZM335.09 322.106C333.78 323.138 332.445 324.165 331.086 325.188L334.696 329.981C336.088 328.933 337.456 327.88 338.801 326.821L335.09 322.106ZM327.137 328.101C325.85 329.032 324.542 329.959 323.214 330.882L326.639 335.809C327.997 334.865 329.334 333.917 330.652 332.964L327.137 328.101ZM319.17 333.64C317.802 334.556 316.413 335.468 315.004 336.376L318.254 341.419C319.692 340.493 321.109 339.562 322.507 338.627L319.17 333.64ZM310.717 339.087C309.335 339.945 307.934 340.799 306.516 341.649L309.6 346.796C311.045 345.93 312.472 345.059 313.881 344.185L310.717 339.087ZM302.368 344.093C300.968 344.905 299.552 345.712 298.118 346.516L301.052 351.75C302.51 350.932 303.952 350.11 305.377 349.285L302.368 344.093ZM293.765 348.916C292.297 349.713 290.812 350.505 289.31 351.294L292.098 356.606C293.625 355.805 295.134 355 296.626 354.19L293.765 348.916ZM284.792 353.627C283.38 354.345 281.952 355.06 280.511 355.771L283.165 361.152C284.628 360.43 286.077 359.705 287.511 358.976L284.792 353.627ZM276.141 357.895C274.671 358.6 273.185 359.301 271.685 359.998L274.215 365.439C275.735 364.732 277.242 364.021 278.733 363.306L276.141 357.895ZM267.142 362.08C265.613 362.77 264.069 363.457 262.511 364.14L264.92 369.635C266.498 368.943 268.062 368.247 269.611 367.548L267.142 362.08ZM257.861 366.149C256.397 366.772 254.921 367.392 253.433 368.009L255.73 373.552C257.236 372.927 258.73 372.3 260.211 371.669L257.861 366.149ZM248.931 369.849C247.418 370.459 245.892 371.066 244.354 371.67L246.546 377.255C248.101 376.645 249.644 376.031 251.175 375.414L248.931 369.849ZM239.703 373.471C238.141 374.068 236.565 374.661 234.978 375.251L237.068 380.875C238.672 380.279 240.264 379.679 241.844 379.076L239.703 373.471ZM230.178 377.011C228.656 377.562 227.123 378.109 225.579 378.653L227.574 384.312C229.133 383.762 230.681 383.209 232.218 382.653L230.178 377.011ZM221.006 380.244C219.471 380.771 217.926 381.296 216.37 381.817L218.275 387.506C219.846 386.98 221.406 386.451 222.956 385.919L221.006 380.244ZM211.669 383.371C210.091 383.886 208.503 384.398 206.904 384.907L208.723 390.624C210.336 390.111 211.939 389.595 213.531 389.075L211.669 383.371ZM202.075 386.423C200.455 386.925 198.824 387.424 197.182 387.92L198.917 393.664C200.572 393.164 202.217 392.66 203.852 392.154L202.075 386.423ZM192.513 389.312C190.97 389.767 189.418 390.218 187.857 390.667L189.515 396.434C191.089 395.981 192.653 395.526 194.209 395.068L192.513 389.312ZM183.146 392.005C181.567 392.448 179.978 392.888 178.38 393.325L179.963 399.112C181.574 398.672 183.175 398.228 184.767 397.782L183.146 392.005ZM173.559 394.627C171.942 395.059 170.317 395.487 168.682 395.912L170.192 401.719C171.839 401.291 173.477 400.859 175.105 400.425L173.559 394.627ZM163.749 397.179C162.132 397.589 160.507 397.996 158.872 398.4L160.312 404.225C161.958 403.818 163.596 403.408 165.224 402.995L163.749 397.179ZM154.178 399.547C152.605 399.926 151.025 400.303 149.436 400.677L150.811 406.517C152.411 406.141 154.002 405.761 155.586 405.379L154.178 399.547ZM144.646 401.792C143.041 402.16 141.428 402.526 139.807 402.89L141.119 408.744C142.751 408.379 144.374 408.01 145.989 407.639L144.646 401.792ZM134.921 403.971C133.284 404.329 131.639 404.684 129.986 405.036L131.236 410.904C132.899 410.55 134.555 410.193 136.202 409.833L134.921 403.971ZM125.003 406.084C123.365 406.424 121.72 406.761 120.067 407.095L121.256 412.976C122.92 412.64 124.575 412.3 126.223 411.958L125.003 406.084ZM115.324 408.043C113.736 408.357 112.141 408.668 110.539 408.976L111.673 414.868C113.284 414.558 114.888 414.245 116.486 413.93L115.324 408.043ZM105.711 409.894C104.095 410.197 102.472 410.498 100.842 410.796L101.922 416.698C103.561 416.398 105.193 416.096 106.818 415.791L105.711 409.894ZM95.9304 411.683C94.2862 411.976 92.635 412.267 90.9766 412.554L92.0028 418.466C93.6699 418.177 95.3301 417.885 96.9832 417.59L95.9304 411.683ZM85.9807 413.41C84.3083 413.693 82.6289 413.973 80.9425 414.25L81.916 420.17C83.6111 419.892 85.2993 419.61 86.9804 419.326L85.9807 413.41ZM76.0812 415.039C74.4885 415.294 72.8896 415.547 71.2845 415.797L72.2091 421.725C73.8222 421.474 75.4291 421.22 77.0299 420.963L76.0812 415.039ZM66.4507 416.541C64.8332 416.786 63.2095 417.03 61.5797 417.27L62.4567 423.206C64.0944 422.964 65.726 422.72 67.3514 422.473L66.4507 416.541ZM56.6716 417.986C55.0293 418.222 53.3809 418.455 51.7263 418.686L52.5565 424.629C54.2188 424.396 55.875 424.162 57.5251 423.925L56.6716 417.986ZM46.7437 419.373C45.0767 419.599 43.4035 419.823 41.7241 420.044L42.5082 425.993C44.1952 425.77 45.8761 425.545 47.5508 425.318L46.7437 419.373ZM36.6672 420.701C35.8214 420.809 34.974 420.917 34.1251 421.024L34.8751 426.976C35.7278 426.869 36.579 426.761 37.4285 426.652L36.6672 420.701Z" fill="black"/>
</svg>
