<svg width="120" height="96" viewBox="0 0 120 96" fill="none" xmlns="http://www.w3.org/2000/svg">
<path d="M60 27C50.0588 27 42 36.4012 42 48C42 59.5969 50.0588 69 60 69C69.9375 69 78 59.6006 78 48C78 36.4012 69.9413 27 60 27ZM67.5 58.5C67.5 59.3288 66.8288 60 66 60H54C53.1712 60 52.5 59.3288 52.5 58.5V55.5C52.5 54.6712 53.1712 54 54 54H57V43.605L56.9119 43.6631C56.7481 43.7725 56.5643 43.8484 56.3711 43.8867C56.1779 43.9249 55.979 43.9247 55.7859 43.8861C55.5928 43.8474 55.4092 43.7711 55.2456 43.6614C55.082 43.5517 54.9416 43.4108 54.8325 43.2469L53.1675 40.7512C53.0582 40.5874 52.9822 40.4037 52.9439 40.2105C52.9057 40.0172 52.9059 39.8184 52.9446 39.6253C52.9832 39.4321 53.0596 39.2485 53.1693 39.0849C53.2789 38.9214 53.4198 38.781 53.5837 38.6719L56.4581 36.7556C57.1971 36.2629 58.0655 35.9999 58.9538 36H61.5C62.3288 36 63 36.6712 63 37.5V54H66C66.8288 54 67.5 54.6712 67.5 55.5V58.5ZM114 12H6C2.68687 12 0 14.6869 0 18V78C0 81.3131 2.68687 84 6 84H114C117.313 84 120 81.3131 120 78V18C120 14.6869 117.313 12 114 12ZM111 63C104.372 63 99 68.3719 99 75H21C21 68.3719 15.6281 63 9 63V33C15.6281 33 21 27.6281 21 21H99C99 27.6281 104.372 33 111 33V63Z" fill="black"/>
</svg>
