<svg width="120" height="120" viewBox="0 0 120 120" fill="none" xmlns="http://www.w3.org/2000/svg">
<path d="M106.697 0H18.291C16.2587 0 14.5266 0.390625 13.0947 1.17188C11.6628 1.95312 10.6467 2.91016 10.0462 4.04297C9.44573 5.17578 9.1455 6.40625 9.1455 7.73438V22.6172H4.29561C3.09469 22.6172 2.07852 22.9883 1.24711 23.7305C0.415704 24.4727 0 25.3516 0 26.3672C0 26.9922 0.184757 27.5977 0.554273 28.1836C0.923788 28.7695 1.45497 29.2188 2.14781 29.5312C2.84065 29.8438 3.55658 30 4.29561 30H9.1455V45.1172H4.71132C3.97229 45.1172 3.25635 45.2734 2.56351 45.5859C1.87067 45.8984 1.33949 46.3477 0.969977 46.9336C0.600462 47.5195 0.415704 48.125 0.415704 48.75C0.415704 49.7656 0.831409 50.625 1.66282 51.3281C2.49423 52.0312 3.51039 52.3828 4.71132 52.3828H9.1455V67.6172H4.57275C4.01848 67.6172 3.4873 67.7148 2.97921 67.9102C2.47113 68.1055 2.00924 68.3594 1.59353 68.6719C1.17783 68.9844 0.854503 69.375 0.623557 69.8438C0.39261 70.3125 0.277136 70.7812 0.277136 71.25C0.277136 72.2656 0.715935 73.1445 1.59353 73.8867C2.47113 74.6289 3.4642 75 4.57275 75H9.1455V90H4.57275C4.20323 90 3.83372 90.0391 3.4642 90.1172C3.09469 90.1953 2.74827 90.3125 2.42494 90.4688C2.10162 90.625 1.80139 90.8203 1.52425 91.0547C1.24711 91.2891 1.01617 91.543 0.831409 91.8164C0.646651 92.0898 0.508083 92.3828 0.415704 92.6953C0.323326 93.0078 0.277136 93.3203 0.277136 93.6328C0.277136 94.6484 0.715935 95.5273 1.59353 96.2695C2.47113 97.0117 3.4642 97.3828 4.57275 97.3828H9.1455V112.5C9.1455 115.234 10.0924 117.168 11.9861 118.301C13.8799 119.434 15.9353 120 18.1524 120H106.697C110.393 120 113.533 118.906 116.12 116.719C118.707 114.531 120 111.875 120 108.75V11.25C120 8.125 118.707 5.46875 116.12 3.28125C113.533 1.09375 110.393 0 106.697 0ZM18.0139 112.5V97.3828H22.5866C23.7875 97.3828 24.8268 97.0117 25.7044 96.2695C26.582 95.5273 27.0208 94.6484 27.0208 93.6328C27.0208 93.1641 26.9053 92.6953 26.6744 92.2266C26.4434 91.7578 26.1201 91.3672 25.7044 91.0547C25.2887 90.7422 24.8268 90.4883 24.3187 90.293C23.8106 90.0977 23.2333 90 22.5866 90H18.0139V75H22.5866C23.418 75 24.157 74.8242 24.8037 74.4727C25.4503 74.1211 25.9815 73.6719 26.3972 73.125C26.8129 72.5781 27.0208 71.9531 27.0208 71.25C27.0208 70.2344 26.582 69.375 25.7044 68.6719C24.8268 67.9688 23.7875 67.6172 22.5866 67.6172H18.0139V52.3828H22.7252C23.5566 52.3828 24.2956 52.2266 24.9423 51.9141C25.5889 51.6016 26.097 51.1719 26.4665 50.625C26.836 50.0781 27.0208 49.4531 27.0208 48.75C27.0208 48.2812 26.9284 47.8125 26.7437 47.3438C26.5589 46.875 26.2587 46.4844 25.843 46.1719C25.4273 45.8594 24.9654 45.6055 24.4573 45.4102C23.9492 45.2148 23.3718 45.1172 22.7252 45.1172H18.0139V30H22.3095C23.5104 30 24.5266 29.6484 25.358 28.9453C26.1894 28.2422 26.6051 27.3828 26.6051 26.3672C26.6051 25.3516 26.1894 24.4727 25.358 23.7305C24.5266 22.9883 23.5104 22.6172 22.3095 22.6172H18.0139V7.5H88.9607V112.5H18.0139ZM111.132 108.75C111.132 109.766 110.693 110.645 109.815 111.387C108.938 112.129 107.898 112.5 106.697 112.5H97.8291V7.5H106.697C107.898 7.5 108.938 7.87109 109.815 8.61328C110.693 9.35547 111.132 10.2344 111.132 11.25V108.75Z" fill="black"/>
</svg>
