<svg width="140" height="140" viewBox="0 0 140 140" fill="none" xmlns="http://www.w3.org/2000/svg">
<path d="M136.014 93.1308L140 73.3859L89.1383 48.1906V26.7937C89.1443 22.2134 88.1307 17.6882 86.1699 13.5403C84.209 9.39242 81.3491 5.72395 77.7938 2.79619C75.606 0.989472 72.8481 0 70 0C67.1519 0 64.394 0.989472 62.2062 2.79619C58.6509 5.72395 55.791 9.39242 53.8301 13.5403C51.8693 17.6882 50.8557 22.2134 50.8617 26.7937V48.1906L0 73.3859L3.98584 93.1308L50.9909 87.0574L53.3043 111.121L31.7235 120.284V140H108.277V120.284L86.6957 111.12L89.0091 87.0565L136.014 93.1308ZM98.7074 126.535V130.52H41.2926V126.535L63.4924 117.108L60.4309 85.262V76.2757L11.6154 82.5837L10.8167 78.6274L60.4309 54.0501V26.7937C60.4268 23.6037 61.1328 20.4521 62.4985 17.5633C63.8642 14.6744 65.8561 12.1195 68.3323 10.0805C68.8003 9.6937 69.3905 9.48186 70 9.48186C70.6095 9.48186 71.1997 9.6937 71.6677 10.0805C74.1439 12.1195 76.1358 14.6744 77.5015 17.5633C78.8672 20.4521 79.5732 23.6037 79.5691 26.7937V54.0501L129.183 78.6274L128.385 82.5837L79.5691 76.2757V85.262L76.5076 117.108L98.7074 126.535Z" fill="black"/>
</svg>
