<svg width="180" height="180" viewBox="0 0 180 180" fill="none" xmlns="http://www.w3.org/2000/svg">
<g clip-path="url(#clip0)">
<path d="M80.8708 0C75.877 0 71.7414 4.67501 71.7414 10.3201V15.4802H58.0474V10.3201H48.9181V15.4802H39.7888C34.795 15.4802 30.6594 20.1552 30.6594 25.8003V108.361C30.6594 114.006 34.795 118.681 39.7888 118.681H140.211C145.205 118.681 149.341 114.006 149.341 108.361V25.8003C149.341 20.1552 145.205 15.4802 140.211 15.4802H131.082V10.3201H121.953V15.4802H108.259V10.3201C108.259 4.67501 104.123 0 99.1294 0H80.8708ZM80.8708 10.3201H99.1294V15.4802H80.8708V10.3201ZM39.7888 25.8003H140.211V108.361H131.082V30.9603H121.953V108.361H58.0474V30.9603H48.9181V108.361H39.7888V25.8003Z" fill="black"/>
</g>
<defs>
<clipPath id="clip0">
<rect width="180" height="180" fill="white"/>
</clipPath>
</defs>
</svg>
