<svg width="120" height="120" viewBox="0 0 120 120" fill="none" xmlns="http://www.w3.org/2000/svg">
<path d="M42.5 80C46.6421 80 50 76.6421 50 72.5C50 68.3579 46.6421 65 42.5 65C38.3579 65 35 68.3579 35 72.5C35 76.6421 38.3579 80 42.5 80Z" fill="black"/>
<path d="M77.5 80C81.6421 80 85 76.6421 85 72.5C85 68.3579 81.6421 65 77.5 65C73.3579 65 70 68.3579 70 72.5C70 76.6421 73.3579 80 77.5 80Z" fill="black"/>
<path d="M60 10C40 10 20 12.5 20 30V77.5C20 87.15 27.85 95 37.5 95L30 102.5V105H40L50 95H70L80 105H90V102.5L82.5 95C92.15 95 100 87.15 100 77.5V30C100 12.5 80 10 60 10ZM60 20C77.55 20 84.8 22.4 87.85 25H32.15C35.2 22.4 42.45 20 60 20ZM30 35H55V50H30V35ZM90 77.5C90 81.65 86.65 85 82.5 85H37.5C33.35 85 30 81.65 30 77.5V60H90V77.5ZM90 50H65V35H90V50Z" fill="black"/>
</svg>
