<svg width="98" height="136" viewBox="0 0 98 136" fill="none" xmlns="http://www.w3.org/2000/svg">
<path d="M39.375 48.75C34.2696 48.75 29.3733 50.7781 25.7632 54.3882C22.1531 57.9983 20.125 62.8946 20.125 68C20.125 70.5527 21.1391 73.0009 22.9441 74.8059C24.7491 76.6109 27.1973 77.625 29.75 77.625H68.25C70.8027 77.625 73.2509 76.6109 75.0559 74.8059C76.8609 73.0009 77.875 70.5527 77.875 68C77.875 62.8946 75.8469 57.9983 72.2368 54.3882C68.6267 50.7781 63.7304 48.75 58.625 48.75H39.375ZM29.75 68C29.75 65.4473 30.7641 62.9991 32.5691 61.1941C34.3741 59.3891 36.8223 58.375 39.375 58.375H58.625C61.1777 58.375 63.6259 59.3891 65.4309 61.1941C67.2359 62.9991 68.25 65.4473 68.25 68H29.75Z" fill="black"/>
<path d="M49 0.625C43.8946 0.625 38.9983 2.65312 35.3882 6.26319C31.7781 9.87327 29.75 14.7696 29.75 19.875V23.879C21.1663 27.6266 13.8625 33.7969 8.73356 41.6339C3.60466 49.4709 0.873559 58.6339 0.875001 68V111.312C0.875001 117.694 3.41015 123.815 7.92274 128.327C12.4353 132.84 18.5557 135.375 24.9375 135.375H73.0625C79.4443 135.375 85.5647 132.84 90.0773 128.327C94.5899 123.815 97.125 117.694 97.125 111.312V68C97.1264 58.6339 94.3953 49.4709 89.2664 41.6339C84.1375 33.7969 76.8337 27.6266 68.25 23.879V19.875C68.25 14.7696 66.2219 9.87327 62.6118 6.26319C59.0017 2.65312 54.1054 0.625 49 0.625ZM87.5 87.25H10.5V68C10.5 57.7892 14.5562 47.9965 21.7764 40.7764C28.9965 33.5562 38.7892 29.5 49 29.5C59.2108 29.5 69.0035 33.5562 76.2236 40.7764C83.4438 47.9965 87.5 57.7892 87.5 68V87.25ZM29.75 111.312C29.75 112.589 30.257 113.813 31.1595 114.715C32.0621 115.618 33.2861 116.125 34.5625 116.125C35.8389 116.125 37.0629 115.618 37.9655 114.715C38.868 113.813 39.375 112.589 39.375 111.312V96.875H87.5V111.312C87.5 115.142 85.9789 118.814 83.2714 121.521C80.5638 124.229 76.8916 125.75 73.0625 125.75H24.9375C21.1084 125.75 17.4362 124.229 14.7286 121.521C12.0211 118.814 10.5 115.142 10.5 111.312V96.875H29.75V111.312ZM49 19.875C45.7082 19.875 42.4839 20.2022 39.375 20.8375V19.875C39.375 17.3223 40.3891 14.8741 42.1941 13.0691C43.9991 11.2641 46.4473 10.25 49 10.25C51.5527 10.25 54.0009 11.2641 55.8059 13.0691C57.6109 14.8741 58.625 17.3223 58.625 19.875V20.8375C55.4569 20.1957 52.2324 19.8733 49 19.875V19.875Z" fill="black"/>
</svg>
