<svg width="120" height="163" viewBox="0 0 120 163" fill="none" xmlns="http://www.w3.org/2000/svg">
<path d="M40.4567 54.9432V76.8813H56.6106V54.9432H40.4567ZM63.5337 54.9432V76.8813H79.6875V54.9432H63.5337ZM86.6106 54.9432V76.8813H102.764V54.9432H86.6106ZM86.6106 86.2833V108.221H102.764V86.2833H86.6106ZM63.5337 86.2833V108.221H79.6875V86.2833H63.5337ZM63.5337 117.623V139.562H79.6875V117.623H63.5337ZM40.4567 117.623V139.562H56.6106V117.623H40.4567ZM40.4567 86.2833V108.221H56.6106V86.2833H40.4567ZM17.3798 117.623V139.562H33.5337V117.623H17.3798ZM17.3798 86.2833V108.221H33.5337V86.2833H17.3798ZM36.9231 24.1907V4.01546C36.9231 2.97078 36.6947 2.04037 36.238 1.22422C35.7812 0.408075 35.2404 0 34.6154 0H30C29.375 0 28.8341 0.408075 28.3774 1.22422C27.9207 2.04037 27.6923 2.97078 27.6923 4.01546V24.1907C27.6923 25.3006 27.9207 26.231 28.3774 26.9819C28.8341 27.7328 29.375 28.1408 30 28.2061H34.6154C35.2885 28.1408 35.8413 27.7328 36.274 26.9819C36.7067 26.231 36.9231 25.3006 36.9231 24.1907ZM9.23077 162.969H110.769C113.269 162.969 115.409 161.793 117.188 159.443C118.966 157.092 119.904 154.22 120 150.824V24.6804C120 21.3505 119.087 18.4939 117.26 16.1108C115.433 13.7276 113.269 12.5361 110.769 12.5361H96.9231V21.9381C96.9231 26.0515 96.4183 29.1692 95.4087 31.2912C94.399 33.4132 92.5962 34.4742 90 34.4742H85.3846C80.7692 34.4089 78.4615 30.2628 78.4615 22.036V12.5361H41.5385V22.036C41.5385 30.2628 39.2308 34.4089 34.6154 34.4742H30C27.4038 34.4742 25.601 33.4132 24.5913 31.2912C23.5817 29.1692 23.0769 26.0515 23.0769 21.9381V12.5361H9.23077C6.73077 12.5361 4.56731 13.7276 2.74038 16.1108C0.913462 18.4939 0 21.3505 0 24.6804V150.824C0 154.154 0.901442 156.995 2.70433 159.345C4.50721 161.696 6.68269 162.903 9.23077 162.969ZM9.23077 43.8762H110.769V150.433H9.23077V43.8762ZM92.3077 24.1907V4.01546C92.3077 2.97078 92.0793 2.04037 91.6226 1.22422C91.1659 0.408075 90.625 0 90 0H85.3846C84.7596 0 84.2188 0.408075 83.762 1.22422C83.3053 2.04037 83.0769 2.97078 83.0769 4.01546V24.1907C83.0769 25.3006 83.3053 26.231 83.762 26.9819C84.2188 27.7328 84.7596 28.1408 85.3846 28.2061H90C90.6731 28.1408 91.226 27.7328 91.6587 26.9819C92.0913 26.231 92.3077 25.3006 92.3077 24.1907Z" fill="black"/>
</svg>
