<svg width="120" height="120" viewBox="0 0 120 120" fill="none" xmlns="http://www.w3.org/2000/svg">
<g clip-path="url(#clip0)">
<path d="M24.7276 22.5C19.7176 22.5 15.0901 25.005 12.3038 29.1788L1.87506 44.7675C0.647734 46.6056 -0.00495598 48.7673 6.44165e-05 50.9775V75.8213C-0.00684993 77.4859 0.543046 79.1051 1.5623 80.4213C2.58154 81.7375 4.01162 82.6751 5.62506 83.085L15.3526 85.5487C16.0522 88.919 17.8896 91.9462 20.5566 94.1223C23.2237 96.2983 26.5579 97.491 30.0001 97.5C36.9451 97.5 42.7426 92.6963 44.4151 86.25H79.3351C81.0076 92.6963 86.8051 97.5 93.7501 97.5C100.695 97.5 106.493 92.6963 108.165 86.25H112.5C116.603 86.25 120 82.8525 120 78.75V65.04C119.996 61.6974 118.876 58.452 116.817 55.8191C114.757 53.1863 111.877 51.3172 108.634 50.5087L88.3576 45.3525L73.7101 27.8925C72.3088 26.2064 70.5538 24.8493 68.5694 23.9174C66.585 22.9854 64.4199 22.5015 62.2276 22.5H24.7276ZM24.7276 30H41.2501V45H10.7813L18.5176 33.3975V33.2812C19.197 32.2608 20.1205 31.4261 21.2043 30.8531C22.2882 30.2801 23.4979 29.9869 24.7238 30H24.7276ZM48.7501 30H62.2276C64.4513 30 66.5476 30.9825 67.9688 32.6962L78.2813 45H48.7501V30ZM7.50006 52.5H85.7813L106.875 57.7725C108.494 58.1742 109.93 59.1101 110.95 60.4289C111.971 61.7477 112.517 63.3724 112.5 65.04V78.75H108.165C106.493 72.3037 100.695 67.5 93.7501 67.5C86.8051 67.5 81.0076 72.3037 79.3351 78.75H44.4151C42.7426 72.3037 36.9451 67.5 30.0001 67.5C23.3513 67.5 17.7676 71.895 15.8213 77.9287L7.50006 75.825V52.5ZM30.0001 75C34.1888 75 37.5001 78.3112 37.5001 82.5C37.5001 86.6888 34.1888 90 30.0001 90C25.8113 90 22.5001 86.6888 22.5001 82.5C22.5001 78.3112 25.8113 75 30.0001 75ZM93.7501 75C97.9388 75 101.25 78.3112 101.25 82.5C101.25 86.6888 97.9388 90 93.7501 90C89.5613 90 86.2501 86.6888 86.2501 82.5C86.2501 78.3112 89.5613 75 93.7501 75Z" fill="black"/>
</g>
<defs>
<clipPath id="clip0">
<rect width="120" height="120" fill="white"/>
</clipPath>
</defs>
</svg>
