<svg width="120" height="120" viewBox="0 0 120 120" fill="none" xmlns="http://www.w3.org/2000/svg">
<path d="M37.5 70C44.4036 70 50 64.4036 50 57.5C50 50.5964 44.4036 45 37.5 45C30.5964 45 25 50.5964 25 57.5C25 64.4036 30.5964 70 37.5 70Z" fill="black"/>
<path d="M86.025 35H60C58.6739 35 57.4021 35.5268 56.4645 36.4645C55.5268 37.4021 55 38.6739 55 40V75H20V30H10V100H20V85H100V100H110V58.975C109.993 52.6185 107.465 46.5242 102.971 42.0294C98.4758 37.5347 92.3815 35.0066 86.025 35ZM65 75V45H86.025C89.7302 45.004 93.2825 46.4776 95.9024 49.0976C98.5224 51.7175 99.996 55.2698 100 58.975V75H65Z" fill="black"/>
</svg>
