<svg width="60" height="53" viewBox="0 0 60 53" fill="none" xmlns="http://www.w3.org/2000/svg">
<path d="M54.375 26.25H45V18.75C45 14.6133 48.3633 11.25 52.5 11.25H53.4375C54.9961 11.25 56.25 9.99609 56.25 8.4375V2.8125C56.25 1.25391 54.9961 0 53.4375 0H52.5C42.1406 0 33.75 8.39062 33.75 18.75V46.875C33.75 49.9805 36.2695 52.5 39.375 52.5H54.375C57.4805 52.5 60 49.9805 60 46.875V31.875C60 28.7695 57.4805 26.25 54.375 26.25ZM20.625 26.25H11.25V18.75C11.25 14.6133 14.6133 11.25 18.75 11.25H19.6875C21.2461 11.25 22.5 9.99609 22.5 8.4375V2.8125C22.5 1.25391 21.2461 0 19.6875 0H18.75C8.39062 0 0 8.39062 0 18.75V46.875C0 49.9805 2.51953 52.5 5.625 52.5H20.625C23.7305 52.5 26.25 49.9805 26.25 46.875V31.875C26.25 28.7695 23.7305 26.25 20.625 26.25Z" fill="#F0F0F0"/>
</svg>
