<svg width="120" height="120" viewBox="0 0 120 120" fill="none" xmlns="http://www.w3.org/2000/svg">
<path d="M59 60C64.9674 60 70.6903 57.6295 74.9099 53.4099C79.1295 49.1903 81.5 43.4674 81.5 37.5C81.5 31.5326 79.1295 25.8097 74.9099 21.5901C70.6903 17.3705 64.9674 15 59 15C53.0326 15 47.3097 17.3705 43.0901 21.5901C38.8705 25.8097 36.5 31.5326 36.5 37.5C36.5 43.4674 38.8705 49.1903 43.0901 53.4099C47.3097 57.6295 53.0326 60 59 60ZM74 37.5C74 41.4782 72.4196 45.2936 69.6066 48.1066C66.7936 50.9196 62.9782 52.5 59 52.5C55.0218 52.5 51.2064 50.9196 48.3934 48.1066C45.5804 45.2936 44 41.4782 44 37.5C44 33.5218 45.5804 29.7064 48.3934 26.8934C51.2064 24.0804 55.0218 22.5 59 22.5C62.9782 22.5 66.7936 24.0804 69.6066 26.8934C72.4196 29.7064 74 33.5218 74 37.5ZM104 97.5C104 105 96.5 105 96.5 105H21.5C21.5 105 14 105 14 97.5C14 90 21.5 67.5 59 67.5C96.5 67.5 104 90 104 97.5ZM96.5 97.47C96.4925 95.625 95.345 90.075 90.26 84.99C85.37 80.1 76.1675 75 59 75C41.825 75 32.63 80.1 27.74 84.99C22.655 90.075 21.515 95.625 21.5 97.47H96.5Z" fill="black"/>
</svg>
