<svg width="60" height="53" viewBox="0 0 60 53" fill="none" xmlns="http://www.w3.org/2000/svg">
<path d="M54.375 0H39.375C36.2695 0 33.75 2.51953 33.75 5.625V20.625C33.75 23.7305 36.2695 26.25 39.375 26.25H48.75V33.75C48.75 37.8867 45.3867 41.25 41.25 41.25H40.3125C38.7539 41.25 37.5 42.5039 37.5 44.0625V49.6875C37.5 51.2461 38.7539 52.5 40.3125 52.5H41.25C51.6094 52.5 60 44.1094 60 33.75V5.625C60 2.51953 57.4805 0 54.375 0ZM20.625 0H5.625C2.51953 0 0 2.51953 0 5.625V20.625C0 23.7305 2.51953 26.25 5.625 26.25H15V33.75C15 37.8867 11.6367 41.25 7.5 41.25H6.5625C5.00391 41.25 3.75 42.5039 3.75 44.0625V49.6875C3.75 51.2461 5.00391 52.5 6.5625 52.5H7.5C17.8594 52.5 26.25 44.1094 26.25 33.75V5.625C26.25 2.51953 23.7305 0 20.625 0Z" fill="#F0F0F0"/>
</svg>
