<svg width="90" height="129" viewBox="0 0 90 129" fill="none" xmlns="http://www.w3.org/2000/svg">
<path d="M28.875 102.667V44.9167H19.25V102.667H28.875ZM49.7292 102.667V44.9167H40.1042V102.667H49.7292ZM70.5833 102.667V44.9167H60.9583V102.667H70.5833ZM77.1925 25.6667C84.1225 25.6667 89.8333 31.3133 89.8333 38.5V109.083C89.8333 116.334 84.1225 121.917 77.1925 121.917C77.1925 125.638 74.1767 128.333 70.5833 128.333C67.375 128.333 64.1667 125.638 64.1667 121.917H25.6667C25.6667 125.638 22.4583 128.333 19.25 128.333C15.6567 128.333 12.6408 125.638 12.6408 121.917C5.71083 121.917 0 116.334 0 109.083V38.5C0 31.3133 5.71083 25.6667 12.6408 25.6667H25.6667V6.41667C25.6667 2.695 28.6183 0 32.0833 0H57.75C61.215 0 64.1667 2.695 64.1667 6.41667V25.6667H77.1925ZM35.2917 9.625V25.6667H54.5417V9.625H35.2917ZM77.1925 109.083V38.5H12.6408V109.083" fill="black"/>
</svg>
